<svg width="163" height="34" viewBox="0 0 163 34" fill="none" xmlns="http://www.w3.org/2000/svg">
<g clip-path="url(#clip0_566_2778)">
<path d="M38.6983 34C29.5648 34 22.1348 26.5316 22.1348 17.3511C22.1348 8.17061 29.5648 0.702271 38.6983 0.702271C47.8317 0.702271 55.2618 8.17061 55.2618 17.3511C55.2618 26.5316 47.8317 34 38.6983 34V34ZM38.6983 2.97904C30.8161 2.97904 24.3999 9.42375 24.3999 17.3511C24.3999 25.2785 30.8115 31.7232 38.6983 31.7232C46.585 31.7232 52.9967 25.2785 52.9967 17.3511C52.9967 9.42375 46.585 2.97904 38.6983 2.97904V2.97904Z" fill="black"/>
<path d="M122.009 34C121.384 34 120.877 33.4905 120.877 32.8617V6.22902L107.692 28.8268C107.482 29.1895 107.085 29.4098 106.674 29.3868C106.259 29.3731 105.884 29.1298 105.697 28.7534L96.5816 10.1858C96.3031 9.62122 96.536 8.93727 97.0977 8.66186C97.6594 8.38185 98.3353 8.61595 98.6138 9.18055L106.797 25.8524L121.032 1.46434C121.292 1.01909 121.813 0.807934 122.306 0.941051C122.799 1.07417 123.142 1.52401 123.142 2.03812V32.8617C123.142 33.4905 122.635 34 122.009 34V34Z" fill="black"/>
<path d="M61.8747 34.0001C61.2491 34.0001 60.7422 33.4906 60.7422 32.8617V1.84078C60.7422 1.21191 61.2491 0.702393 61.8747 0.702393C62.5004 0.702393 63.0073 1.21191 63.0073 1.84078V32.8617C63.0073 33.4906 62.5004 34.0001 61.8747 34.0001V34.0001Z" fill="black"/>
<path d="M79.4703 34C79.1963 34 78.9223 33.9036 78.7077 33.7017L62.4456 18.7512C62.1442 18.4942 61.9433 18.0994 61.9113 17.6633C61.8793 17.2272 62.0163 16.8049 62.2995 16.4744C62.3269 16.4423 62.3543 16.4148 62.3817 16.3872L78.6986 1.00989C79.1552 0.578404 79.8722 0.605945 80.3015 1.06038C80.7307 1.51941 80.7079 2.24008 80.2512 2.67156L64.4824 17.5348L80.2421 32.0216C80.7034 32.4439 80.7353 33.1646 80.3152 33.6282C80.0914 33.8761 79.7854 34 79.4795 34H79.4703ZM63.9435 17.0436L63.9754 17.0712C63.9754 17.0712 63.9526 17.0528 63.9435 17.0436Z" fill="black"/>
<path d="M20.5639 34H1.13255C0.506906 34 0 33.4904 0 32.8616V1.84065C0 1.21179 0.506906 0.702271 1.13255 0.702271C1.75819 0.702271 2.26509 1.21179 2.26509 1.84065V31.7232H20.5639C21.1896 31.7232 21.6965 32.2327 21.6965 32.8616C21.6965 33.4904 21.1896 34 20.5639 34V34Z" fill="black"/>
<path d="M88.238 34C87.6124 34 87.1055 33.4905 87.1055 32.8616V8.0146C87.1055 7.38574 87.6124 6.87622 88.238 6.87622C88.8637 6.87622 89.3706 7.38574 89.3706 8.0146V32.8616C89.3706 33.4905 88.8637 34 88.238 34V34Z" fill="black"/>
<path d="M88.238 3.68138C89.2494 3.68138 90.0692 2.85728 90.0692 1.84069C90.0692 0.824106 89.2494 0 88.238 0C87.2266 0 86.4067 0.824106 86.4067 1.84069C86.4067 2.85728 87.2266 3.68138 88.238 3.68138Z" fill="black"/>
<path d="M146.71 34C137.577 34 130.147 26.5316 130.147 17.3511C130.147 8.17061 137.577 0.702271 146.71 0.702271C151.725 0.702271 156.415 2.9469 159.575 6.86698C159.968 7.35355 159.895 8.07422 159.411 8.46898C158.922 8.86374 158.209 8.7903 157.817 8.30373C155.086 4.92071 151.035 2.98363 146.71 2.98363C138.828 2.98363 132.412 9.42834 132.412 17.3557C132.412 25.2831 138.824 31.7278 146.71 31.7278C151.382 31.7278 155.766 29.4281 158.442 25.5723C158.799 25.0582 159.506 24.9296 160.018 25.2923C160.529 25.6503 160.657 26.3618 160.296 26.8759C157.196 31.3376 152.113 34.0046 146.706 34.0046L146.71 34Z" fill="black"/>
<path d="M141.23 15.7721C140.892 15.7721 140.559 15.6206 140.335 15.3315C139.952 14.8357 140.039 14.1196 140.532 13.734L146.532 9.02904C146.948 8.70772 147.528 8.70772 147.934 9.03822L153.812 13.7432C154.3 14.1334 154.383 14.8495 153.994 15.3452C153.606 15.8364 152.889 15.919 152.401 15.5288L147.222 11.3792L141.925 15.5334C141.719 15.6941 141.472 15.7721 141.23 15.7721V15.7721Z" fill="black"/>
<path d="M160.954 11.5811C161.486 11.5811 161.918 11.1475 161.918 10.6126C161.918 10.0777 161.486 9.64404 160.954 9.64404C160.422 9.64404 159.991 10.0777 159.991 10.6126C159.991 11.1475 160.422 11.5811 160.954 11.5811Z" fill="black"/>
<path d="M162.406 14.2527C162.734 14.2527 163 13.9855 163 13.6559C163 13.3264 162.734 13.0592 162.406 13.0592C162.078 13.0592 161.812 13.3264 161.812 13.6559C161.812 13.9855 162.078 14.2527 162.406 14.2527Z" fill="black"/>
<path d="M141.226 25.15C140.6 25.15 140.093 24.6404 140.093 24.0116V18.898C140.093 18.2692 140.6 17.7596 141.226 17.7596C141.851 17.7596 142.358 18.2692 142.358 18.898V24.0116C142.358 24.6404 141.851 25.15 141.226 25.15Z" fill="black"/>
</g>
<defs>
<clipPath id="clip0_566_2778">
<rect width="163" height="34" fill="white"/>
</clipPath>
</defs>
</svg>
